<svg width="123" height="86" viewBox="0 0 123 86" fill="none" xmlns="http://www.w3.org/2000/svg">
<path fill-rule="evenodd" clip-rule="evenodd" d="M93.5612 4.87542C93.2876 4.41091 92.9203 4.00836 92.4828 3.69336C92.0453 3.37835 91.5471 3.15777 91.0198 3.04562L82.7094 1.1904C80.901 0.73633 78.9977 0.837786 77.2479 1.48153C75.498 2.12528 73.9827 3.28142 72.8997 4.79917L70.155 8.89082C69.72 9.56788 69.5472 10.3804 69.6688 11.1759C69.7905 11.9713 70.1983 12.6951 70.8157 13.2112L80.9813 22.284C81.2239 22.5853 81.5161 22.8432 81.8454 23.0464L91.0198 27.3922C91.8324 27.8247 92.7833 27.9177 93.6643 27.651C94.5454 27.3843 95.285 26.7796 95.7214 25.969L99.6351 17.9636C99.8574 17.484 99.9575 16.9568 99.9264 16.4291C99.8954 15.9014 99.7342 15.3896 99.4572 14.9393L93.5612 4.87542ZM86.5726 37.6599L58.3886 16.4647C57.1042 15.5011 55.6207 14.8367 54.0466 14.5201C52.4725 14.2035 50.8475 14.2427 49.2904 14.6349L24.5627 20.8105C18.9356 22.2193 13.8579 25.2778 9.98166 29.5933C6.10538 33.9088 3.60738 39.2844 2.80836 45.0299L0.521103 60.8882C0.181042 63.4022 0.738846 65.9555 2.0963 68.0986C3.45375 70.2417 5.52381 71.8372 7.94197 72.604L46.5457 85.311C47.6374 85.6653 48.7781 85.8454 49.9258 85.8447H80.0921C81.5081 85.848 82.9108 85.5716 84.2197 85.0313C85.5285 84.4909 86.7177 83.6973 87.719 82.6961C88.7203 81.6948 89.5139 80.5056 90.0542 79.1967C90.5945 77.8879 90.871 76.4852 90.8676 75.0692V46.2752C90.8725 44.6038 90.4868 42.9544 89.7411 41.4586C88.9954 39.9628 87.9104 38.6619 86.5726 37.6599ZM119.127 33.491L122.228 38.7771C122.531 39.3742 122.586 40.0669 122.382 40.7046C122.177 41.3423 121.729 41.8734 121.135 42.1826L115.036 46.1725C114.809 46.3263 114.56 46.4462 114.299 46.5283L105.099 49.3239C104.575 49.5114 104 49.4922 103.49 49.2703C102.98 49.0483 102.574 48.6404 102.354 48.1294L101.109 44.9273C100.672 43.6632 100.61 42.2998 100.93 41.0012C101.25 39.7027 101.939 38.5243 102.913 37.6081L107.259 33.2115C107.527 32.9306 107.851 32.7086 108.21 32.5599C108.569 32.4111 108.955 32.3387 109.343 32.3474L117.323 32.4999C117.684 32.4921 118.041 32.5797 118.358 32.7537C118.675 32.9277 118.94 33.182 119.127 33.491Z" fill="black"/>
</svg>
