<svg width="30" height="24" viewBox="0 0 30 24" fill="none" xmlns="http://www.w3.org/2000/svg">
<path d="M27.4277 10.1633C21.6038 10.1633 15.7799 10.1633 9.95601 10.1633C8.5585 10.1633 7.15324 10.2021 5.7558 10.1633C4.78462 10.1363 7.15121 8.75089 7.28712 8.64653C9.21869 7.16336 11.1378 5.66174 13.0624 4.16922C13.5797 3.76805 14.0909 3.3295 14.6521 2.98791C14.653 2.98733 15.237 2.76533 15.2354 2.75457C15.1847 2.39922 13.273 3.35896 13.1937 3.39627C10.5705 4.62914 8.28252 6.36504 5.93081 8.034C4.98043 8.70845 3.62832 9.35468 2.89732 10.2945C2.51911 10.7808 4.25842 11.6114 4.51615 11.8113C7.77283 14.3369 11.1028 17.0993 13.8645 20.1679C14.2234 20.5667 15.4193 21.6322 14.9729 21.3347C13.6278 20.4379 12.4081 19.2326 11.1811 18.1845C9.86286 17.0585 8.57708 15.897 7.25796 14.7718C6.64513 14.2491 6.27134 13.4724 5.63913 13.0509" stroke="white" stroke-width="4" stroke-linecap="round"/>
</svg>
