<svg width="35" height="31" viewBox="0 0 35 31" fill="none" xmlns="http://www.w3.org/2000/svg">
<path d="M2.62695 28.7322C6.10528 28.7322 9.57847 28.6584 13.0575 28.6584C15.7706 28.6584 18.4533 28.5918 21.1552 28.4328C24.9719 28.2083 28.757 27.9941 32.5903 27.9941" stroke="black" stroke-width="3.5" stroke-linecap="round"/>
<path d="M19.1591 16.4805C19.1131 16.9866 18.8107 17.4934 18.6097 17.9483C18.1463 18.997 17.6121 20.0253 17.1091 21.0561C16.7861 21.718 16.5097 22.4127 16.2645 23.1062C16.0541 23.701 15.7238 24.2528 15.5018 24.8446C15.1743 25.718 14.863 26.5967 14.5096 27.4605C14.3913 27.7497 14.1406 28.1948 14.1406 28.5101" stroke="black" stroke-width="3.5" stroke-linecap="round"/>
<path d="M7.57227 9.10069C7.65469 8.27648 8.80292 7.4483 9.3763 6.96865C10.3495 6.15451 11.383 5.60824 12.4431 4.93092C13.2441 4.4192 14.2348 4.17635 15.1 3.787C15.9177 3.41905 16.8203 3.11817 17.683 2.88498C18.2354 2.7357 18.7268 2.67998 19.3067 2.67998C20.0754 2.67998 20.9463 2.56591 21.7011 2.71688C22.3496 2.84658 22.9975 2.87432 23.6322 3.08589C24.3491 3.32484 25.0224 3.56344 25.711 3.8608C26.1231 4.03876 26.5175 4.19211 26.8918 4.45121C27.3558 4.77247 27.6689 5.17558 28.0849 5.55003C28.7638 6.16104 29.1307 7.08228 29.5814 7.86247C30.2955 9.09833 30.7799 10.4322 31.2953 11.7575C31.6057 12.5557 31.6471 13.4725 31.775 14.3037C31.8756 14.9575 32.0743 15.6768 32.0743 16.3332C32.0743 16.4526 32.1474 16.9653 32.0579 17.0548C31.9533 17.1594 31.3131 16.774 31.2174 16.735C29.9804 16.2311 29.0358 15.1697 27.72 14.8408C26.7317 14.5937 25.7616 14.2068 24.8008 13.8609C22.4307 13.0077 19.942 12.5672 17.5313 11.8641C15.5897 11.2978 13.5914 10.926 11.6313 10.4291C10.948 10.2559 10.3021 10.0104 9.6346 9.8018C9.40922 9.73137 8.98392 9.71939 8.90069 9.4697" stroke="black" stroke-width="3.5" stroke-linecap="round"/>
<path d="M14.5664 11.0153C14.5664 11.2336 14.9116 10.9639 14.9939 10.7617C15.1514 10.3751 15.42 10.0311 15.6336 9.67518C16.2014 8.72875 16.7341 7.55507 17.577 6.81333C18.5577 5.9503 19.2867 5.07582 20.488 4.54189C20.7605 4.4208 21.1388 4.45141 21.4311 4.36149C21.837 4.23658 22.2395 4.15524 22.6611 4.07858C23.2442 3.97257 23.7655 3.88028 24.3626 4.01298C24.9302 4.13911 25.6407 5.13623 25.8181 5.64891C26.1241 6.53275 26.4659 7.36989 26.4659 8.32625C26.4659 9.35264 26.4659 10.379 26.4659 11.4054C26.4659 11.7455 26.4786 13.1539 26.1707 13.3078" stroke="black" stroke-width="3.5" stroke-linecap="round"/>
</svg>
