<svg width="25" height="25" viewBox="0 0 25 25" fill="none" xmlns="http://www.w3.org/2000/svg">
<path d="M7.24853 2.45997C7.24853 2.42363 7.22018 1.90033 7.25779 2.16361C7.37887 3.0112 7.96673 3.8653 8.39691 4.57151C10.5424 8.09368 13.2958 11.1981 15.8429 14.4254C17.5111 16.5391 18.7558 18.8947 20.2882 21.0934C20.581 21.5135 20.9704 22.4069 21.4181 22.6308" stroke="white" stroke-width="3" stroke-linecap="round"/>
<path d="M2.2471 19.9627C2.19768 20.0368 2.42853 19.9411 2.50642 19.8979C3.62329 19.2774 4.67311 18.5208 5.74782 17.8326C9.48925 15.4371 13.3439 13.3128 17.2687 11.2387C18.793 10.4332 20.3015 9.60189 21.8437 8.8308C22.2151 8.64511 22.6161 8.53258 22.7513 8.12695" stroke="white" stroke-width="3" stroke-linecap="round"/>
</svg>
