<svg width="40" height="26" viewBox="0 0 40 26" fill="none" xmlns="http://www.w3.org/2000/svg">
<path d="M25.2845 23.0722C21.5867 23.0722 17.8513 23.1909 14.163 22.9366C12.1522 22.7979 10.1139 22.7246 8.12566 22.4405C7.52899 22.3553 6.89449 21.9204 6.39738 21.6074C5.89791 21.2929 5.50053 20.9353 5.0876 20.5224C3.8116 19.2464 3.28986 17.2437 2.65404 15.6088C2.09438 14.1696 1.91748 12.5693 2.40604 11.0749C3.10698 8.93087 3.91507 6.70608 5.54486 5.0763C6.46779 4.15336 7.43709 3.61266 8.68367 3.23176C9.96981 2.83877 11.2503 2.60242 12.5743 2.41024C13.8774 2.22107 15.2102 2.28624 16.5268 2.28624C18.1621 2.28624 19.7974 2.28624 21.4327 2.28624C22.7215 2.28624 24.003 2.42574 25.2845 2.42574C26.4012 2.42574 27.6101 2.35188 28.7024 2.60012C30.5134 3.01171 32.3632 3.4214 33.616 4.90192C34.2708 5.67582 34.9384 6.48817 35.5535 7.30834C35.7816 7.61249 36.0228 7.90783 36.251 8.21511C36.5702 8.64476 36.6631 9.07935 36.8284 9.57527C37.1804 10.6311 37.2818 11.7822 37.2818 12.8885C37.2818 13.5105 37.19 14.0902 37.088 14.702C37.0221 15.0974 37.0027 15.5536 36.8323 15.9188C36.6937 16.2157 36.6042 16.6203 36.5145 16.9341C36.416 17.2789 36.2218 17.659 36.0611 17.9803C35.7801 18.5425 35.4776 19.1216 35.1195 19.6389C34.841 20.0412 34.4154 20.2988 34.0383 20.5921C33.6758 20.8741 33.2964 21.1984 32.8874 21.4136C31.6908 22.0435 30.4531 22.8629 29.0511 22.8629C28.3269 22.8629 27.619 23.0024 26.8811 23.0024C26.1629 23.0024 25.4447 23.0024 24.7265 23.0024" stroke="black" stroke-width="4" stroke-linecap="round"/>
<path d="M24.0986 15.8875C24.0986 15.9651 24.095 15.6607 24.1025 15.6085C24.1229 15.4659 24.2256 15.3379 24.3776 15.3295C24.7649 15.308 24.9285 15.5435 24.7264 15.872C24.5692 16.1274 24.4137 16.2538 24.0986 16.2363C23.7043 16.2143 23.954 15.8875 24.2381 15.8875" stroke="black" stroke-width="4" stroke-linecap="round"/>
<path d="M27.8651 10.7958C27.699 10.7774 27.163 10.1942 27.4466 10.0441C27.58 9.97341 28.2793 9.80196 28.4076 9.90457C28.6202 10.0746 28.503 10.5696 28.2138 10.5866C27.5595 10.6251 28.1191 9.42065 28.2138 9.61007" stroke="black" stroke-width="4" stroke-linecap="round"/>
<path d="M12.9395 17.4232C12.9395 15.7983 12.9831 14.1721 13.0092 12.5561C13.0195 11.919 13.094 11.2617 13.1448 10.6263C13.1701 10.3101 13.2627 9.60761 13.079 9.33203" stroke="black" stroke-width="4" stroke-linecap="round"/>
<path d="M16.9843 13.1668C15.287 13.1668 13.5898 13.1668 11.8925 13.1668C11.2973 13.1668 10.7037 13.0971 10.1138 13.0971C9.89964 13.0971 9.63081 13.1471 9.45117 13.0273" stroke="black" stroke-width="4" stroke-linecap="round"/>
</svg>
