<svg width="34" height="30" viewBox="0 0 34 30" fill="none" xmlns="http://www.w3.org/2000/svg">
<path d="M2 14.844C2.30637 14.6602 2.58339 14.3877 2.87409 14.1757C3.50133 13.7184 4.11469 13.2433 4.74168 12.7858C5.76117 12.0419 6.72947 11.2325 7.74 10.4786C9.57779 9.10758 11.1953 7.51411 12.7939 5.87952C14.0446 4.60081 15.2379 3.23036 16.6968 2.1799C17.0235 1.94471 17.0052 2.13257 17.2559 2.38317C17.8802 3.00752 18.6236 3.53155 19.3547 4.02463C19.7243 4.27388 20.0317 4.62166 20.432 4.82757C21.0268 5.13344 21.518 5.64517 22.0582 6.03198C23.5454 7.09664 24.8563 8.38403 26.3296 9.46734C27.497 10.3258 28.5134 11.3539 29.5337 12.3742C29.9234 12.7639 30.3269 13.1762 30.7686 13.5074C30.9794 13.6655 31.1745 13.7862 31.3632 13.975" stroke="black" stroke-width="3.5" stroke-linecap="round"/>
<path d="M6.10938 12.0879C6.10938 14.1842 6.10938 16.2805 6.10938 18.3768C6.10938 19.5334 6.10938 20.69 6.10938 21.8467C6.10938 22.6146 6.20883 23.3514 6.24416 24.1111C6.28043 24.8908 6.45598 25.6557 6.45598 26.4372C6.45598 26.5574 6.45758 27.3785 6.5407 27.4616C6.55018 27.4711 6.77166 27.3418 6.81798 27.3384C7.18067 27.3115 7.5528 27.2128 7.91556 27.1651C9.22348 26.993 10.5475 26.8531 11.8668 26.8531C13.148 26.8531 14.4291 26.8531 15.7102 26.8531C17.0286 26.8531 18.38 27.0329 19.6962 27.1304C21.1022 27.2346 22.5052 27.3212 23.9093 27.4616C24.7319 27.5439 25.5959 27.685 26.4202 27.685C26.5589 27.685 26.6975 27.685 26.8362 27.685C27.0996 27.685 27.0648 26.8864 27.1173 26.6798C27.4609 25.3269 27.9143 23.8458 28.0108 22.4474C28.1473 20.4674 28.3612 18.4556 28.3612 16.4705C28.3612 15.5625 28.4474 14.663 28.4305 13.7516C28.4247 13.4388 28.428 12.9147 28.2919 12.6425" stroke="black" stroke-width="3.5" stroke-linecap="round"/>
<path d="M12.7637 26.9931C12.7637 25.355 12.769 23.762 12.9716 22.1407C13.0706 21.349 13.2023 20.5603 13.3028 19.7684C13.3899 19.0829 13.2877 18.3462 13.4222 17.6734C13.4727 17.4209 13.403 16.8338 13.6648 16.6798C14.0674 16.443 14.707 16.5257 15.1514 16.5257C16.4809 16.5257 17.8071 16.595 19.1411 16.595C19.5459 16.595 19.9882 16.5417 20.3889 16.5989C20.6552 16.6369 20.6678 16.9625 20.7509 17.1496C20.9118 17.5116 20.9182 18.039 20.9473 18.432C21.0016 19.1648 21.1381 19.9116 21.1514 20.6464C21.1827 22.368 21.1514 24.0926 21.1514 25.8147" stroke="black" stroke-width="3.5" stroke-linecap="round"/>
</svg>
