<svg width="39" height="29" viewBox="0 0 39 29" fill="none" xmlns="http://www.w3.org/2000/svg">
<path d="M25.147 8.74129C25.1344 8.66274 25.0794 8.67079 25.1271 8.75843C25.34 9.1495 25.7637 9.47559 26.0759 9.78229C26.8791 10.5715 27.7399 11.305 28.6486 11.9668C29.8204 12.8202 31.1073 13.6033 32.127 14.6461C33.0043 15.5433 33.944 16.4317 34.7402 17.4009C35.1272 17.8719 35.7297 18.4483 35.9444 19.0245" stroke="white" stroke-width="3" stroke-linecap="round"/>
<path d="M35.3655 8.8286C34.9462 9.09134 34.6445 9.5446 34.292 9.88605C33.5515 10.6034 32.8018 11.3072 32.0722 12.0364C30.6472 13.4605 29.0311 14.7429 27.7209 16.2765C27.2001 16.886 26.6531 17.4812 26.1054 18.0685C25.8646 18.3267 25.5292 18.6068 25.4287 18.9475" stroke="white" stroke-width="3" stroke-linecap="round"/>
<path d="M14.8188 22.5167C14.8046 22.1102 13.476 21.5195 13.2196 21.2399C12.9615 20.9584 12.7356 20.6884 12.5232 20.3758C12.2828 20.022 12.1587 19.6039 11.7811 19.3818C11.1479 19.0092 10.2381 18.8648 9.51078 18.9099C8.80413 18.9537 8.11725 19.2547 7.40972 19.2794C6.87047 19.2983 6.17651 19.4121 5.67165 19.2085C5.31365 19.0641 4.855 18.8847 4.47255 18.7898C4.11344 18.7006 3.72091 17.7772 3.62917 17.4867C3.4296 16.8546 3.34839 16.2771 3.32522 15.6136C3.28185 14.3716 3.23097 13.0764 3.50687 11.8647C3.60883 11.4169 3.86849 11.2782 4.28054 11.1714C5.09731 10.9597 5.96691 10.9547 6.80117 10.8037C7.69544 10.6418 8.52048 10.5791 9.44083 10.547C10.8045 10.4994 11.8195 9.13085 12.5382 8.08632C12.9905 7.42896 13.5494 6.87507 14.1049 6.31247C14.3407 6.07362 14.7071 5.87821 14.8944 5.60218C15.0266 5.40743 15.1228 5.18477 15.3193 5.04857C15.9764 4.59299 16.5094 3.81318 17.2258 3.46438C17.7299 3.21891 18.3393 2.6852 18.9005 2.6656C19.5606 2.64255 19.568 3.7588 19.5833 4.19639C19.6228 5.32882 19.8222 6.58294 19.6688 7.70571C19.3463 10.0652 19.2784 12.426 19.3615 14.8069C19.4121 16.2555 19.4627 17.7042 19.5133 19.1529C19.5293 19.6102 19.5452 20.0675 19.5612 20.5249C19.5773 20.9857 19.6054 21.5851 19.5236 22.0397C19.3632 22.9315 19.5325 23.9436 19.5642 24.8514C19.5759 25.1863 19.6621 25.5339 19.673 25.847C19.6823 26.1121 19.3479 26.3396 19.0906 26.1265C18.293 25.4658 17.469 24.8335 16.6178 24.214C16.1895 23.9023 15.8333 23.4864 15.4489 23.1279C14.6548 22.3875 13.9387 21.5941 13.168 20.8222C12.218 19.8707 11.1914 18.9169 10.038 18.2253C9.32977 17.8006 8.56633 17.7034 7.76383 17.6425C7.22655 17.6017 6.91482 17.6533 6.4236 17.422C5.79689 17.1269 5.73827 16.695 5.52156 16.088C5.2813 15.4152 5.22198 14.8112 5.19716 14.1006C5.17658 13.5111 7.5116 13.4311 7.83834 13.4161C8.44857 13.3881 9.0605 13.3864 9.6704 13.3521C10.2911 13.3172 10.9844 13.0147 11.5461 12.7725C12.12 12.5252 12.6511 12.2832 13.1484 11.8981C13.6439 11.5144 13.9694 10.9118 14.305 10.3936C14.8099 9.61399 15.0611 8.76616 15.4571 7.93504C15.6562 7.51709 16.1218 6.42221 16.698 6.36998C16.8718 6.35422 17.0401 6.26485 17.213 6.27797C17.3641 6.28944 17.3432 7.44967 17.3703 7.60501C17.4665 8.15569 17.6276 8.70263 17.6831 9.25976C17.7611 10.0419 17.7426 10.8445 17.77 11.6298C17.8306 13.3658 17.5456 15.1115 17.5822 16.8514C17.608 18.0775 17.5655 19.3687 17.7494 20.5799C17.8302 21.1119 18.0096 21.6338 18.0599 22.1689C18.0745 22.324 18.2098 23.1247 18.0856 23.2579C18.0034 23.3461 17.56 22.575 17.5257 22.5372C16.8797 21.8236 16.1134 21.2091 15.5277 20.4395C14.7718 19.4463 13.9404 18.5895 13.0237 17.7508C12.246 17.0393 11.0631 16.3384 9.98332 16.3065C8.70266 16.2687 7.43162 16.3349 6.15673 16.1399C6.07403 16.1272 4.92215 15.9637 4.98037 15.9013C5.08096 15.7934 5.37955 15.7483 5.50865 15.7183C6.32745 15.5283 7.18289 15.4123 8.01523 15.3018C9.35944 15.1234 10.6939 14.9131 12.0228 14.6436C12.5755 14.5315 13.2373 14.5151 13.7972 14.5776C14.0562 14.6065 14.6339 14.6975 14.8692 14.536C15.1974 14.3107 15.3978 13.718 15.5194 13.37C15.7313 12.7633 15.9427 11.9663 15.6868 11.3324C15.4912 10.8478 14.9465 12.3873 14.916 12.4615C14.1806 14.2468 13.728 16.2574 13.7795 18.1933C13.7906 18.6112 13.718 19.1482 13.9736 19.5108C14.0158 19.5707 14.3604 19.9363 14.4281 19.8075C14.5283 19.6171 14.483 19.3771 14.4841 19.1722C14.4865 18.6864 14.5136 18.1953 14.5399 17.7102C14.5647 17.2537 14.6193 16.8034 14.6034 16.3467C14.5918 16.0148 14.5587 15.675 14.5848 15.3438C14.6082 15.0466 14.6656 14.7328 14.7592 14.4494C14.8859 14.0659 14.8546 14.5336 14.8879 14.7204C15.1383 16.1217 15.4471 17.514 15.7578 18.9015C15.8302 19.225 15.8994 19.5408 15.9109 19.8709" stroke="white" stroke-width="3" stroke-linecap="round"/>
<path d="M16.1359 7.20592C16.1443 7.44758 16.2315 7.14185 16.2862 7.03615C16.5568 6.5132 16.8448 6.01393 17.1711 5.52465C17.3775 5.21526 17.7041 4.43084 18.0315 4.25255" stroke="white" stroke-width="3" stroke-linecap="round"/>
</svg>
