<svg width="31" height="29" viewBox="0 0 31 29" fill="none" xmlns="http://www.w3.org/2000/svg">
<path d="M2.34735 25.9919C2.34735 24.5421 2.34735 23.0924 2.34735 21.6426C2.34735 21.1679 2.30348 20.6694 2.36424 20.1985C2.40369 19.8927 2.42981 19.5892 2.48247 19.2864C2.52003 19.0704 2.42898 18.7763 2.53736 18.5812C2.65356 18.372 2.55877 18.0037 2.57959 17.7747C2.65545 16.9402 2.78814 16.1138 2.80339 15.2749C2.82381 14.1519 2.8794 13.0231 2.8794 11.8926C2.8794 10.6175 2.96071 9.33206 3.03563 8.05844C3.10173 6.93481 2.98088 5.72702 3.27632 4.63389C3.35144 4.35594 3.49225 3.77878 3.73236 3.58669C3.80127 3.53156 4.00411 3.53695 4.09551 3.49379C4.39079 3.35435 4.70741 3.19159 5.01182 3.07997C5.96475 2.73056 7.13536 2.73372 8.14078 2.73372C9.48673 2.73372 10.8121 2.50569 12.1523 2.50569C13.627 2.50569 15.0882 2.42969 16.5649 2.42969C17.624 2.42969 18.6717 2.5817 19.7276 2.5817C21.0338 2.5817 22.34 2.5817 23.6462 2.5817C24.818 2.5817 26.18 2.40152 27.1975 3.11375C28.1854 3.80528 28.36 4.5405 28.5529 5.69799C28.8011 7.18707 28.5644 8.75446 28.4896 10.25C28.3344 13.3539 28.3418 16.4601 28.3418 19.5735C28.3418 20.7249 28.3418 21.8763 28.3418 23.0276C28.3418 23.6438 28.4712 24.6386 28.0209 25.1389C27.5351 25.6787 26.9106 26.0066 26.2094 26.1819C24.4712 26.6165 22.6707 26.524 20.8931 26.524C17.5693 26.524 14.2525 26.2959 10.9319 26.2959C10.3179 26.2959 9.71931 26.2199 9.10776 26.2199C8.65497 26.2199 8.18552 26.2618 7.74385 26.1608C7.37314 26.0761 6.9801 26.1684 6.60375 26.0848C6.24267 26.0046 5.83517 25.9919 5.46364 25.9919C4.96814 25.9919 4.45271 25.9159 3.97728 25.9159C3.43404 25.9159 3.63947 24.9278 3.63947 24.5309C3.63947 23.9493 3.71574 23.4837 4.36576 23.4837C5.38709 23.4837 6.41032 23.4455 7.43983 23.4837C8.29903 23.5155 9.18186 23.6577 10.041 23.7286C10.9557 23.804 11.8838 23.785 12.7941 23.9017C14.6719 24.1425 16.629 24.0157 18.52 24.0157C20.4941 24.0157 22.4792 24.0345 24.4274 23.6737C24.8918 23.5877 25.4708 23.4837 25.9433 23.4837C26.1535 23.4837 26.2438 23.3216 26.4416 23.2556" stroke="black" stroke-width="3" stroke-linecap="round"/>
<path d="M8.12554 19.5317C7.88988 19.5023 8.45557 18.8891 8.50558 18.8308C8.88653 18.3863 9.31244 17.9619 9.64568 17.4796C10.0959 16.828 10.7126 16.3655 11.2038 15.7652C11.3075 15.6385 11.7775 14.9411 11.9428 15.1064C12.0497 15.2133 12.0649 15.4239 12.1539 15.5625C12.3043 15.7964 12.4783 15.9462 12.648 16.1537C12.8527 16.4039 13.0239 16.9138 13.256 17.0995C13.4649 17.2666 13.4469 16.9293 13.5981 16.7026C13.9567 16.1646 14.3632 15.4983 14.8184 15.0431C15.2534 14.6081 15.7548 14.1278 16.1063 13.6201C16.513 13.0325 16.8994 12.496 17.2464 11.8888C17.393 11.6322 17.5502 11.3657 17.6856 11.095C17.7255 11.015 17.7476 10.7796 17.7953 10.7318C17.8592 10.6679 17.9008 10.9596 17.9009 10.9598C18.0212 11.3876 18.231 11.7847 18.4667 12.1591C19.6258 14 20.5138 16.2151 22.2629 17.5893C22.7426 17.9663 23.1378 18.3313 23.555 18.7717C23.5956 18.8145 23.8775 18.9897 23.707 18.9997C23.4448 19.0151 23.1658 19.0135 22.9047 18.9955C20.1066 18.8025 17.3887 18.2396 14.5693 18.2396C13.7138 18.2396 12.8538 18.3156 12.0061 18.3156C11.433 18.3156 10.8752 18.5473 10.3129 18.6366C9.6489 18.7419 8.85824 18.8842 8.27756 19.2108C8.22599 19.2398 8.74194 19.2277 8.84339 19.2277C9.57401 19.2277 10.3158 19.1915 11.0434 19.2657C12.9401 19.4593 14.8879 19.3797 16.7946 19.3797C17.7953 19.3797 18.7961 19.3797 19.7969 19.3797C20.4021 19.3797 21.0073 19.3797 21.6126 19.3797C21.7495 19.3797 22.3617 19.4752 22.474 19.3628C22.5965 19.2403 20.8408 17.6795 20.6667 17.5218C20.1326 17.0377 19.766 16.4606 19.2648 15.9594C18.7103 15.4049 18.2157 15.2085 17.5124 14.9333C17.3589 14.8732 17.0738 14.5783 17.0184 14.8278C16.8766 15.4659 16.5453 16.0616 16.2583 16.6435C16.1504 16.8623 15.8639 17.2973 15.8783 17.5556C15.8862 17.6977 16.4952 17.6316 16.6003 17.6316C16.9622 17.6316 17.4839 17.7551 17.6264 17.3275" stroke="black" stroke-width="3" stroke-linecap="round"/>
<path d="M8.50446 9.72701C8.45034 9.18583 8.02441 8.15503 8.77893 7.86483C9.41965 7.6184 10.6883 8.07505 10.9747 8.70514C11.1825 9.16231 10.969 9.74031 10.4046 9.80302C10.151 9.8312 9.91385 9.87902 9.64457 9.87902C9.31343 9.87902 9.34054 9.81227 9.34054 9.49899" stroke="black" stroke-width="3" stroke-linecap="round"/>
</svg>
