<svg width="147" height="31" viewBox="0 0 147 31" fill="none" xmlns="http://www.w3.org/2000/svg">
<path d="M2.57812 9.5561C2.57812 11.3422 2.57812 16.7007 2.57812 14.9145C2.57812 13.3203 3.78174 11.5205 4.3928 10.1039C4.98383 8.73381 5.8388 6.58232 7.13193 5.68708C8.32163 4.86344 10.1787 5.99425 10.727 7.09088C11.5672 8.77124 11.5145 11.0467 11.5145 12.8773C11.5145 13.2653 11.5145 14.4295 11.5145 14.0414C11.5145 12.2372 12.1885 10.4433 13.0382 8.87132C13.6018 7.82856 15.0139 4.76585 16.6846 5.85827C18.3516 6.94821 19.191 9.08638 19.6634 10.9085C19.9915 12.174 19.9065 13.7059 20.4509 14.7947" stroke="black" stroke-width="3" stroke-linecap="round"/>
<path d="M25.9975 6.7832C25.9975 9.24591 24.8972 12.8295 27.8293 13.5625C28.4401 13.7153 30.0457 14.3339 30.4486 13.5283C30.8392 12.747 30.8453 11.6648 31.082 10.8234C31.2823 10.1111 31.8239 9.44036 31.8524 8.70059C32.0222 4.28499 31.7287 17.6223 30.6197 21.8998C29.8074 25.0333 29.0984 25.6663 25.8434 24.793C24.0739 24.3182 21.4683 23.5165 20.1426 22.1908" stroke="black" stroke-width="3" stroke-linecap="round"/>
<path d="M45.4864 6.0918C48.3818 6.0918 52.9577 6.06729 52.882 9.92658C52.8504 11.5376 52.2388 13.5009 50.725 14.2578C48.8037 15.2185 47.8173 14.8538 45.8288 14.4119C43.8893 13.9809 43.6299 10.5953 43.3464 9.03637C43.3295 8.94342 43.1673 8.27666 43.0383 8.72821C42.4852 10.664 42.3081 12.6693 41.6174 14.6173C40.7755 16.9914 40.1113 20.0093 38.707 22.1157" stroke="black" stroke-width="3" stroke-linecap="round"/>
<path d="M56.888 14.1025C58.7443 14.2002 60.4801 15.0995 62.3662 15.027C63.2974 14.9912 63.3592 11.0622 63.3592 10.302C63.3592 8.74693 57.914 9.20535 56.8195 9.85687C53.9787 11.5478 51.3836 16.9791 54.029 19.8205C56.2375 22.1925 60.6531 24.0165 62.7429 20.8819" stroke="black" stroke-width="3" stroke-linecap="round"/>
<path d="M68.9058 9.78906C68.9058 13.7036 68.5977 17.6055 68.5977 21.4988" stroke="black" stroke-width="3" stroke-linecap="round"/>
<path d="M65.5156 17.1842C67.4031 17.1168 69.1962 16.2598 71.0624 16.2598" stroke="black" stroke-width="3" stroke-linecap="round"/>
<path d="M81.4648 10.3346C81.4648 13.0053 81.4648 15.6759 81.4648 18.3466C81.4648 19.8451 81.5232 18.4234 81.6189 17.6961C81.8764 15.7394 82.1383 13.789 82.629 11.8754C83.6844 7.75941 87.0058 9.25322 89.785 10.6428" stroke="black" stroke-width="3" stroke-linecap="round"/>
<path d="M95.0225 17.4238C94.914 18.292 92.8753 16.5269 92.5573 16.1912C91.8806 15.4769 91.6328 13.9339 91.6328 12.9727C91.6328 10.267 93.5709 7.87109 96.2551 7.87109C98.8504 7.87109 99.3366 12.592 99.3366 14.4621C99.3366 17.3429 97.469 18.0588 95.6388 19.889" stroke="black" stroke-width="3" stroke-linecap="round"/>
<path d="M105.501 9.10352C105.501 13.7118 101.738 17.1346 100.879 21.4296" stroke="black" stroke-width="3" stroke-linecap="round"/>
<path d="M103.652 16.1903C105.447 16.0271 107.816 15.5417 109.456 14.8036C109.902 14.6027 110.873 14.3822 111.048 14.0332" stroke="black" stroke-width="3" stroke-linecap="round"/>
<path d="M103.959 17.7306C104.036 17.1136 111.131 20.0561 111.663 21.1203" stroke="black" stroke-width="3" stroke-linecap="round"/>
<path d="M127.537 23.3538C127.537 21.7989 125.82 19.8761 125.226 18.4234C124.08 15.6237 123.223 13.023 123.223 9.96629C123.223 5.79285 127.766 1.2507 131.988 3.16982C134.219 4.18396 134.008 6.83733 134.008 8.93911C134.008 10.2697 133.538 11.3257 133.392 12.5685C133.327 13.1183 133.185 12.5704 133.392 12.1062C133.733 11.3375 134.653 10.6907 135.241 10.1032C137.111 8.23265 140.63 5.44266 143.081 8.56248C145.322 11.4137 144.896 15.1997 142.79 18.1152C140.513 21.268 136.9 23.5801 133.152 24.3467C130.796 24.8287 127.174 25.6736 126.304 28.2842" stroke="black" stroke-width="3" stroke-linecap="round"/>
</svg>
