<svg width="87" height="52" viewBox="0 0 87 52" fill="none" xmlns="http://www.w3.org/2000/svg">
<path d="M28.83 12.4113C23.0061 12.4113 17.1822 12.4113 11.3583 12.4113C9.96085 12.4113 8.55559 12.4501 7.15814 12.4113C6.18696 12.3843 8.55356 10.9989 8.68947 10.8946C10.621 9.41141 12.5402 7.90979 14.4648 6.41727C14.9821 6.0161 15.4932 5.57754 16.0544 5.23596C16.0554 5.23538 16.6393 5.01338 16.6378 5.00261C16.587 4.64726 14.6754 5.607 14.596 5.64431C11.9729 6.87718 9.68486 8.61309 7.33315 10.282C6.38278 10.9565 5.03066 11.6027 4.29967 12.5426C3.92145 13.0288 5.66077 13.8594 5.9185 14.0593C9.17518 16.5849 12.5051 19.3474 15.2669 22.416C15.6257 22.8147 16.8216 23.8803 16.3753 23.5827C15.0301 22.6859 13.8105 21.4807 12.5834 20.4325C11.2652 19.3066 9.97942 18.145 8.6603 17.0199C8.04747 16.4972 7.67369 15.7204 7.04147 15.299" stroke="white" stroke-width="4" stroke-linecap="round"/>
<path d="M36.7083 20.9371C37.1923 16.3451 37.2292 11.3959 38.7865 7.01129C38.943 6.57061 39.1917 5.36668 39.8056 5.43138C41.1087 5.56873 41.9961 6.18162 42.815 7.19358C44.6822 9.50066 43.9648 13.401 43.6851 16.054C43.5208 17.6133 43.3564 19.1727 43.1921 20.732C43.1526 21.1062 43.0715 21.3241 43.5125 21.0978C44.1443 20.7737 44.6657 20.8065 45.3664 20.8804C45.9707 20.9441 46.3318 20.8916 46.7137 21.3814C47.0857 21.8585 47.7616 22.6037 47.9029 23.212C48.1177 24.1367 50.0222 23.1482 50.7733 23.2274C51.3806 23.2914 51.999 23.3259 52.6019 23.4201C53.0903 23.4964 52.9022 24.2003 53.0064 24.5218C53.0407 24.6278 53.0861 25.2303 53.1464 25.2366C53.9842 25.3249 54.8277 25.048 55.7309 25.2398C56.9847 25.5061 58.6042 26.2503 58.4543 27.6719C58.2533 29.5792 57.7388 31.3948 57.5379 33.3015C57.2602 35.9354 57.255 39.2799 55.0971 41.1308C54.4311 41.7021 53.9538 42.4446 53.2911 43.0227C52.8204 43.4334 52.1703 43.8005 51.8824 44.382C51.7087 44.7327 51.3206 46.2256 51.0893 46.2012C48.5328 45.9317 45.9764 45.6623 43.4199 45.3928C42.3465 45.2797 41.2635 45.4886 40.1907 45.3756C39.7932 45.3337 39.3868 45.3131 38.9924 45.2493C38.7787 45.2147 39.0543 44.6613 39.0766 44.4504C39.2633 42.6792 38.2816 40.4984 37.2095 39.1736C36.6027 38.4239 35.5666 36.9314 34.6487 36.5612C33.0441 35.9141 32.8833 34.5449 32.6155 32.9453C32.1774 30.3297 32.4441 27.7472 33.1561 25.1759C33.4265 24.1995 34.0401 20.604 35.5177 22.1848C35.794 22.4804 36.7302 24.3819 36.4976 24.4691" stroke="white" stroke-width="4" stroke-linecap="round"/>
<path d="M62.5684 12.7488C62.722 11.5195 79.2298 13.0352 81.5422 12.355C82.1834 12.1665 78.5483 7.85542 78.0566 7.35271C77.7646 7.05408 74.5073 4.3139 75.9274 5.04843C78.069 6.15617 80.8915 7.47496 82.6214 9.20488C83.1578 9.74129 83.0472 10.1977 82.6652 10.707C80.2095 13.9813 77.1536 17.1202 74.1627 19.9242C73.6621 20.3934 73.5092 21.0562 73.8564 20.3617" stroke="white" stroke-width="4" stroke-linecap="round"/>
</svg>
